STARTFONT 2.1
FONT -Bitstream-Terminal-Bold-R-Narrow--25-180-100-100-C-90-DEC-DECtech
SIZE 18 100 100
FONTBOUNDINGBOX 9 25 0 -5

STARTPROPERTIES 28
CHARSET_REGISTRY "DEC"
CHARSET_ENCODING "DECtech"
CAP_HEIGHT 15
X_HEIGHT 12
AVERAGE_WIDTH 90
AVG_CAPITAL_WIDTH 90
AVG_LOWERCASE_WIDTH 90
FIGURE_WIDTH 9
SPACING "C"
FONTNAME_REGISTRY ""
FAMILY_NAME "Terminal"
FOUNDRY "Bitstream"
WEIGHT_NAME "Bold"
SETWIDTH_NAME "Narrow"
SLANT "R"
ADD_STYLE_NAME ""
PIXEL_SIZE 25
POINT_SIZE 180
RESOLUTION_X 100
RESOLUTION_Y 100
CHARSET_COLLECTIONS "DEC-DECtech"
FULL_NAME "Terminal Bold Narrow"
COPYRIGHT "Copyright (c) 1988 Bitstream, Inc., Copyright 1990 Digital Equipment Corp."
WEIGHT 10
QUAD_WIDTH 9
DEFAULT_CHAR 159
FONT_DESCENT 5
FONT_ASCENT 20
ENDPROPERTIES

CHARS 181

STARTCHAR space
ENCODING 32
SWIDTH 360 0
DWIDTH 9 0
BBX 1 1 0 0
BITMAP
00
ENDCHAR

STARTCHAR exclam
ENCODING 33
SWIDTH 360 0
DWIDTH 9 0
BBX 3 15 3 0
BITMAP
C0
C0
C0
C0
C0
C0
C0
C0
C0
C0
00
40
E0
E0
40
ENDCHAR

STARTCHAR quotedbl
ENCODING 34
SWIDTH 360 0
DWIDTH 9 0
BBX 6 6 1 11
BITMAP
CC
CC
CC
CC
CC
CC
ENDCHAR

STARTCHAR numbersign
ENCODING 35
SWIDTH 360 0
DWIDTH 9 0
BBX 6 16 2 -1
BITMAP
48
48
48
48
FC
FC
48
48
48
48
FC
FC
48
48
48
48
ENDCHAR

STARTCHAR dollar
ENCODING 36
SWIDTH 360 0
DWIDTH 9 0
BBX 7 20 1 -3
BITMAP
18
18
18
7C
FE
C6
C0
C0
C0
FC
7E
06
06
C6
C6
FE
7C
18
18
18
ENDCHAR

STARTCHAR percent
ENCODING 37
SWIDTH 360 0
DWIDTH 9 0
BBX 8 15 0 0
BITMAP
78
CC
CC
CC
79
07
0C
18
70
C0
9E
33
33
33
1E
ENDCHAR

STARTCHAR ampersand
ENCODING 38
SWIDTH 360 0
DWIDTH 9 0
BBX 7 15 0 0
BITMAP
1C
7C
60
60
60
60
30
30
7A
CE
CC
CC
CC
FE
76
ENDCHAR

STARTCHAR quoteright
ENCODING 39
SWIDTH 360 0
DWIDTH 9 0
BBX 5 5 2 11
BITMAP
38
30
60
60
C0
ENDCHAR

STARTCHAR parenleft
ENCODING 40
SWIDTH 360 0
DWIDTH 9 0
BBX 5 18 2 -2
BITMAP
18
30
60
60
C0
C0
C0
C0
C0
C0
C0
C0
C0
60
60
30
30
18
ENDCHAR

STARTCHAR parenright
ENCODING 41
SWIDTH 360 0
DWIDTH 9 0
BBX 5 18 2 -2
BITMAP
C0
60
30
30
18
18
18
18
18
18
18
18
18
30
30
60
60
C0
ENDCHAR

STARTCHAR asterisk
ENCODING 42
SWIDTH 360 0
DWIDTH 9 0
BBX 7 8 1 4
BITMAP
10
D6
D6
7C
38
38
6C
6C
ENDCHAR

STARTCHAR plus
ENCODING 43
SWIDTH 360 0
DWIDTH 9 0
BBX 6 8 1 3
BITMAP
30
30
30
FC
FC
30
30
30
ENDCHAR

STARTCHAR comma
ENCODING 44
SWIDTH 360 0
DWIDTH 9 0
BBX 5 6 2 -2
BITMAP
38
30
60
60
C0
C0
ENDCHAR

STARTCHAR minus
ENCODING 45
SWIDTH 360 0
DWIDTH 9 0
BBX 6 2 1 6
BITMAP
FC
FC
ENDCHAR

STARTCHAR period
ENCODING 46
SWIDTH 360 0
DWIDTH 9 0
BBX 3 4 2 0
BITMAP
40
E0
E0
40
ENDCHAR

STARTCHAR slash
ENCODING 47
SWIDTH 360 0
DWIDTH 9 0
BBX 6 19 1 -2
BITMAP
0C
0C
0C
0C
18
18
18
30
30
30
30
60
60
60
60
C0
C0
C0
C0
ENDCHAR

STARTCHAR zero
ENCODING 48
SWIDTH 360 0
DWIDTH 9 0
BBX 7 15 1 0
BITMAP
38
7C
6C
C6
C6
C6
C6
C6
C6
C6
C6
C6
6C
7C
38
ENDCHAR

STARTCHAR one
ENCODING 49
SWIDTH 360 0
DWIDTH 9 0
BBX 5 15 1 0
BITMAP
30
70
F0
B0
30
30
30
30
30
30
30
30
30
78
78
ENDCHAR

STARTCHAR two
ENCODING 50
SWIDTH 360 0
DWIDTH 9 0
BBX 7 15 1 0
BITMAP
7C
FE
C6
06
06
06
0C
0C
18
30
30
60
60
FE
FE
ENDCHAR

STARTCHAR three
ENCODING 51
SWIDTH 360 0
DWIDTH 9 0
BBX 7 15 1 0
BITMAP
7C
FE
C6
06
06
06
3C
3C
06
06
06
06
C6
FE
7C
ENDCHAR

STARTCHAR four
ENCODING 52
SWIDTH 360 0
DWIDTH 9 0
BBX 7 15 1 0
BITMAP
0C
1C
3C
2C
6C
4C
CC
CC
FE
FE
0C
0C
0C
0C
0C
ENDCHAR

STARTCHAR five
ENCODING 53
SWIDTH 360 0
DWIDTH 9 0
BBX 7 15 1 0
BITMAP
FE
FE
C0
C0
C0
C0
FC
FE
06
06
06
C6
C6
FE
7C
ENDCHAR

STARTCHAR six
ENCODING 54
SWIDTH 360 0
DWIDTH 9 0
BBX 7 15 1 0
BITMAP
0E
3E
70
60
C0
FC
FE
C6
C6
C6
C6
C6
C6
FE
7C
ENDCHAR

STARTCHAR seven
ENCODING 55
SWIDTH 360 0
DWIDTH 9 0
BBX 7 15 1 0
BITMAP
FE
FE
86
06
06
0C
0C
18
18
18
30
30
30
30
30
ENDCHAR

STARTCHAR eight
ENCODING 56
SWIDTH 360 0
DWIDTH 9 0
BBX 7 15 1 0
BITMAP
7C
FE
C6
C6
C6
C6
7C
FE
C6
C6
C6
C6
C6
FE
7C
ENDCHAR

STARTCHAR nine
ENCODING 57
SWIDTH 360 0
DWIDTH 9 0
BBX 7 15 1 0
BITMAP
7C
FE
C6
C6
C6
C6
C6
FE
7E
06
0C
0C
18
F8
F0
ENDCHAR

STARTCHAR colon
ENCODING 58
SWIDTH 360 0
DWIDTH 9 0
BBX 3 11 3 0
BITMAP
40
E0
E0
40
00
00
00
40
E0
E0
40
ENDCHAR

STARTCHAR semicolon
ENCODING 59
SWIDTH 360 0
DWIDTH 9 0
BBX 5 13 2 -2
BITMAP
10
38
38
10
00
00
00
38
30
60
60
C0
C0
ENDCHAR

STARTCHAR less
ENCODING 60
SWIDTH 360 0
DWIDTH 9 0
BBX 7 11 1 1
BITMAP
06
0E
1C
38
70
E0
70
38
1C
0E
06
ENDCHAR

STARTCHAR equal
ENCODING 61
SWIDTH 360 0
DWIDTH 9 0
BBX 7 6 1 4
BITMAP
FE
FE
00
00
FE
FE
ENDCHAR

STARTCHAR greater
ENCODING 62
SWIDTH 360 0
DWIDTH 9 0
BBX 7 11 1 1
BITMAP
C0
E0
70
38
1C
0E
1C
38
70
E0
C0
ENDCHAR

STARTCHAR question
ENCODING 63
SWIDTH 360 0
DWIDTH 9 0
BBX 7 15 1 0
BITMAP
7C
FE
C6
06
0E
1C
18
30
30
00
00
10
38
38
10
ENDCHAR

STARTCHAR at
ENCODING 64
SWIDTH 360 0
DWIDTH 9 0
BBX 7 18 1 -2
BITMAP
38
7C
E6
C2
C2
CE
DE
DA
D2
D2
D2
DA
DE
CE
C0
E0
7E
3C
ENDCHAR

STARTCHAR A
ENCODING 65
SWIDTH 360 0
DWIDTH 9 0
BBX 7 15 1 0
BITMAP
38
7C
7C
C6
C6
C6
C6
C6
FE
FE
C6
C6
C6
C6
C6
ENDCHAR

STARTCHAR B
ENCODING 66
SWIDTH 360 0
DWIDTH 9 0
BBX 7 15 1 0
BITMAP
FC
FE
C6
C6
C6
C6
FC
FC
C6
C6
C6
C6
C6
FE
FC
ENDCHAR

STARTCHAR C
ENCODING 67
SWIDTH 360 0
DWIDTH 9 0
BBX 7 15 1 0
BITMAP
76
FE
C6
C6
C0
C0
C0
C0
C0
C0
C0
C6
C6
FE
7C
ENDCHAR

STARTCHAR D
ENCODING 68
SWIDTH 360 0
DWIDTH 9 0
BBX 7 15 1 0
BITMAP
FC
FE
C6
C6
C6
C6
C6
C6
C6
C6
C6
C6
C6
FE
FC
ENDCHAR

STARTCHAR E
ENCODING 69
SWIDTH 360 0
DWIDTH 9 0
BBX 6 15 2 0
BITMAP
FC
FC
C0
C0
C0
C0
FC
FC
C0
C0
C0
C0
C0
FC
FC
ENDCHAR

STARTCHAR F
ENCODING 70
SWIDTH 360 0
DWIDTH 9 0
BBX 7 15 2 0
BITMAP
FE
FE
C0
C0
C0
C0
FC
FC
C0
C0
C0
C0
C0
C0
C0
ENDCHAR

STARTCHAR G
ENCODING 71
SWIDTH 360 0
DWIDTH 9 0
BBX 7 15 1 0
BITMAP
7A
FE
C6
C6
C0
C0
C0
C0
CE
CE
C6
C6
C6
FE
7E
ENDCHAR

STARTCHAR H
ENCODING 72
SWIDTH 360 0
DWIDTH 9 0
BBX 7 15 1 0
BITMAP
C6
C6
C6
C6
C6
C6
FE
FE
C6
C6
C6
C6
C6
C6
C6
ENDCHAR

STARTCHAR I
ENCODING 73
SWIDTH 360 0
DWIDTH 9 0
BBX 6 15 1 0
BITMAP
FC
FC
30
30
30
30
30
30
30
30
30
30
30
FC
FC
ENDCHAR

STARTCHAR J
ENCODING 74
SWIDTH 360 0
DWIDTH 9 0
BBX 7 15 1 0
BITMAP
3E
3E
0C
0C
0C
0C
0C
0C
0C
0C
CC
CC
CC
FC
78
ENDCHAR

STARTCHAR K
ENCODING 75
SWIDTH 360 0
DWIDTH 9 0
BBX 7 15 1 0
BITMAP
C6
C6
CC
CC
CC
D8
D8
F0
F8
D8
CC
CC
C6
C6
C6
ENDCHAR

STARTCHAR L
ENCODING 76
SWIDTH 360 0
DWIDTH 9 0
BBX 6 15 2 0
BITMAP
C0
C0
C0
C0
C0
C0
C0
C0
C0
C0
C0
C0
C0
FC
FC
ENDCHAR

STARTCHAR M
ENCODING 77
SWIDTH 360 0
DWIDTH 9 0
BBX 7 15 1 0
BITMAP
82
C6
C6
C6
EE
EE
FE
D6
D6
C6
C6
C6
C6
C6
C6
ENDCHAR

STARTCHAR N
ENCODING 78
SWIDTH 360 0
DWIDTH 9 0
BBX 7 15 1 0
BITMAP
C6
C6
C6
E6
E6
E6
F6
D6
D6
DE
CE
CE
C6
C6
C6
ENDCHAR

STARTCHAR O
ENCODING 79
SWIDTH 360 0
DWIDTH 9 0
BBX 7 15 1 0
BITMAP
7C
FE
C6
C6
C6
C6
C6
C6
C6
C6
C6
C6
C6
FE
7C
ENDCHAR

STARTCHAR P
ENCODING 80
SWIDTH 360 0
DWIDTH 9 0
BBX 7 15 1 0
BITMAP
FC
FE
C6
C6
C6
C6
C6
FE
FC
C0
C0
C0
C0
C0
C0
ENDCHAR

STARTCHAR Q
ENCODING 81
SWIDTH 360 0
DWIDTH 9 0
BBX 7 18 1 -3
BITMAP
7C
FE
C6
C6
C6
C6
C6
C6
C6
C6
C6
C6
C6
FE
7C
60
FE
CE
ENDCHAR

STARTCHAR R
ENCODING 82
SWIDTH 360 0
DWIDTH 9 0
BBX 7 15 1 0
BITMAP
FC
FE
C6
C6
C6
C6
C6
FC
FC
D8
CC
CC
C6
C6
C6
ENDCHAR

STARTCHAR S
ENCODING 83
SWIDTH 360 0
DWIDTH 9 0
BBX 7 15 1 0
BITMAP
7E
FE
C0
C0
E0
60
70
38
1C
0C
0E
06
06
FE
FC
ENDCHAR

STARTCHAR T
ENCODING 84
SWIDTH 360 0
DWIDTH 9 0
BBX 8 15 1 0
BITMAP
FF
FF
18
18
18
18
18
18
18
18
18
18
18
18
18
ENDCHAR

STARTCHAR U
ENCODING 85
SWIDTH 360 0
DWIDTH 9 0
BBX 7 15 1 0
BITMAP
C6
C6
C6
C6
C6
C6
C6
C6
C6
C6
C6
C6
C6
FE
7C
ENDCHAR

STARTCHAR V
ENCODING 86
SWIDTH 360 0
DWIDTH 9 0
BBX 7 15 1 0
BITMAP
C6
C6
C6
C6
C6
C6
C6
C6
C6
C6
C6
6C
7C
38
38
ENDCHAR

STARTCHAR W
ENCODING 87
SWIDTH 360 0
DWIDTH 9 0
BBX 7 15 1 0
BITMAP
C6
C6
C6
C6
C6
C6
C6
D6
D6
FE
EE
EE
C6
C6
C6
ENDCHAR

STARTCHAR X
ENCODING 88
SWIDTH 360 0
DWIDTH 9 0
BBX 7 15 1 0
BITMAP
C6
C6
C6
C6
C6
6C
7C
38
7C
6C
C6
C6
C6
C6
C6
ENDCHAR

STARTCHAR Y
ENCODING 89
SWIDTH 360 0
DWIDTH 9 0
BBX 8 15 1 0
BITMAP
C3
C3
C3
C3
C3
C3
66
7E
3C
18
18
18
18
18
18
ENDCHAR

STARTCHAR Z
ENCODING 90
SWIDTH 360 0
DWIDTH 9 0
BBX 7 15 1 0
BITMAP
FE
FE
06
0C
0C
0C
18
18
38
30
30
70
60
FE
FE
ENDCHAR

STARTCHAR bracketleft
ENCODING 91
SWIDTH 360 0
DWIDTH 9 0
BBX 4 18 3 -2
BITMAP
F0
F0
C0
C0
C0
C0
C0
C0
C0
C0
C0
C0
C0
C0
C0
C0
F0
F0
ENDCHAR

STARTCHAR backslash
ENCODING 92
SWIDTH 360 0
DWIDTH 9 0
BBX 5 19 2 -2
BITMAP
C0
C0
C0
C0
C0
60
60
60
60
60
30
30
30
30
30
18
18
18
18
ENDCHAR

STARTCHAR bracketright
ENCODING 93
SWIDTH 360 0
DWIDTH 9 0
BBX 4 18 2 -2
BITMAP
F0
F0
30
30
30
30
30
30
30
30
30
30
30
30
30
30
F0
F0
ENDCHAR

STARTCHAR asciicircum
ENCODING 94
SWIDTH 360 0
DWIDTH 9 0
BBX 7 5 1 5
BITMAP
38
7C
EE
C6
82
ENDCHAR

STARTCHAR ldblank
ENCODING 95
SWIDTH 360 0
DWIDTH 9 0
BBX 1 1 0 0
BITMAP
00
ENDCHAR

STARTCHAR diamond
ENCODING 96
SWIDTH 360 0
DWIDTH 9 0
BBX 7 14 1 0
BITMAP
10
10
38
38
7C
7C
FE
FE
7C
7C
38
38
10
10
ENDCHAR

STARTCHAR checkerboard
ENCODING 97
SWIDTH 360 0
DWIDTH 9 0
BBX 9 25 0 -5
BITMAP
DB00
6D80
DB00
6D80
DB00
6D80
DB00
6D80
DB00
6D80
DB00
6D80
DB00
6D80
DB00
6D80
DB00
6D80
DB00
6D80
DB00
6D80
DB00
6D80
DB00
ENDCHAR

STARTCHAR HT
ENCODING 98
SWIDTH 360 0
DWIDTH 9 0
BBX 8 18 1 -2
BITMAP
CC
CC
CC
FC
FC
CC
CC
CC
CC
00
3F
0C
0C
0C
0C
0C
0C
0C
ENDCHAR

STARTCHAR FF
ENCODING 99
SWIDTH 360 0
DWIDTH 9 0
BBX 7 18 1 -2
BITMAP
F8
F8
C0
C0
F0
F0
C0
C0
C0
1E
1E
18
18
1E
1E
18
18
18
ENDCHAR

STARTCHAR CR
ENCODING 100
SWIDTH 360 0
DWIDTH 9 0
BBX 7 18 1 -2
BITMAP
70
F8
C8
C0
C0
C0
C8
F8
70
00
7C
66
66
7C
6C
6C
66
66
ENDCHAR

STARTCHAR LF
ENCODING 101
SWIDTH 360 0
DWIDTH 9 0
BBX 7 18 1 -2
BITMAP
C0
C0
C0
C0
C0
C0
F8
F8
00
3E
3E
30
30
3C
3C
30
30
30
ENDCHAR

STARTCHAR degree
ENCODING 102
SWIDTH 360 0
DWIDTH 9 0
BBX 7 8 1 9
BITMAP
7C
FE
C6
C6
C6
C6
FE
7C
ENDCHAR

STARTCHAR plusminus
ENCODING 103
SWIDTH 360 0
DWIDTH 9 0
BBX 6 14 1 0
BITMAP
30
30
30
30
FC
FC
30
30
30
30
00
00
FC
FC
ENDCHAR

STARTCHAR NL
ENCODING 104
SWIDTH 360 0
DWIDTH 9 0
BBX 7 18 1 -2
BITMAP
8C
CC
CC
EC
FC
DC
CC
CC
C4
00
30
30
30
30
30
30
3E
3E
ENDCHAR

STARTCHAR VT
ENCODING 105
SWIDTH 360 0
DWIDTH 9 0
BBX 8 18 1 -2
BITMAP
CC
CC
CC
CC
CC
CC
78
78
30
00
3F
3F
0C
0C
0C
0C
0C
0C
ENDCHAR

STARTCHAR ldcornsqlr
ENCODING 106
SWIDTH 360 0
DWIDTH 9 0
BBX 6 14 0 6
BITMAP
1C
1C
1C
1C
1C
1C
1C
1C
1C
1C
1C
1C
FC
FC
ENDCHAR

STARTCHAR ldcornsqur
ENCODING 107
SWIDTH 360 0
DWIDTH 9 0
BBX 6 13 0 -5
BITMAP
FC
FC
1C
1C
1C
1C
1C
1C
1C
1C
1C
1C
1C
ENDCHAR

STARTCHAR ldcornsqul
ENCODING 108
SWIDTH 360 0
DWIDTH 9 0
BBX 6 13 3 -5
BITMAP
FC
FC
E0
E0
E0
E0
E0
E0
E0
E0
E0
E0
E0
ENDCHAR

STARTCHAR ldcornsqll
ENCODING 109
SWIDTH 360 0
DWIDTH 9 0
BBX 6 14 3 6
BITMAP
E0
E0
E0
E0
E0
E0
E0
E0
E0
E0
E0
E0
FC
FC
ENDCHAR

STARTCHAR ldcross
ENCODING 110
SWIDTH 360 0
DWIDTH 9 0
BBX 9 25 0 -5
BITMAP
1C00
1C00
1C00
1C00
1C00
1C00
1C00
1C00
1C00
1C00
1C00
1C00
FF80
FF80
1C00
1C00
1C00
1C00
1C00
1C00
1C00
1C00
1C00
1C00
1C00
ENDCHAR

STARTCHAR ldscan1
ENCODING 111
SWIDTH 360 0
DWIDTH 9 0
BBX 9 2 0 16
BITMAP
FF80
FF80
ENDCHAR

STARTCHAR ldscan3
ENCODING 112
SWIDTH 360 0
DWIDTH 9 0
BBX 9 2 0 10
BITMAP
FF80
FF80
ENDCHAR

STARTCHAR ldhorizontal
ENCODING 113
SWIDTH 360 0
DWIDTH 9 0
BBX 9 2 0 6
BITMAP
FF80
FF80
ENDCHAR

STARTCHAR ldscan7
ENCODING 114
SWIDTH 360 0
DWIDTH 9 0
BBX 9 2 0 0
BITMAP
FF80
FF80
ENDCHAR

STARTCHAR ldscan9
ENCODING 115
SWIDTH 360 0
DWIDTH 9 0
BBX 9 2 0 -5
BITMAP
FF80
FF80
ENDCHAR

STARTCHAR ldteelft
ENCODING 116
SWIDTH 360 0
DWIDTH 9 0
BBX 6 25 3 -5
BITMAP
E0
E0
E0
E0
E0
E0
E0
E0
E0
E0
E0
E0
FC
FC
E0
E0
E0
E0
E0
E0
E0
E0
E0
E0
E0
ENDCHAR

STARTCHAR ldteert
ENCODING 117
SWIDTH 360 0
DWIDTH 9 0
BBX 6 25 0 -5
BITMAP
1C
1C
1C
1C
1C
1C
1C
1C
1C
1C
1C
1C
FC
FC
1C
1C
1C
1C
1C
1C
1C
1C
1C
1C
1C
ENDCHAR

STARTCHAR ldteebt
ENCODING 118
SWIDTH 360 0
DWIDTH 9 0
BBX 9 14 0 6
BITMAP
1C00
1C00
1C00
1C00
1C00
1C00
1C00
1C00
1C00
1C00
1C00
1C00
FF80
FF80
ENDCHAR

STARTCHAR ldteetp
ENCODING 119
SWIDTH 360 0
DWIDTH 9 0
BBX 9 13 0 -5
BITMAP
FF80
FF80
1C00
1C00
1C00
1C00
1C00
1C00
1C00
1C00
1C00
1C00
1C00
ENDCHAR

STARTCHAR ldvertical
ENCODING 120
SWIDTH 360 0
DWIDTH 9 0
BBX 3 25 3 -5
BITMAP
E0
E0
E0
E0
E0
E0
E0
E0
E0
E0
E0
E0
E0
E0
E0
E0
E0
E0
E0
E0
E0
E0
E0
E0
E0
ENDCHAR

STARTCHAR lessequal
ENCODING 121
SWIDTH 360 0
DWIDTH 9 0
BBX 7 13 1 0
BITMAP
06
1E
3C
70
E0
70
3C
1E
06
00
00
FE
FE
ENDCHAR

STARTCHAR greaterequal
ENCODING 122
SWIDTH 360 0
DWIDTH 9 0
BBX 7 13 1 0
BITMAP
C0
F0
78
1C
0E
1C
78
F0
C0
00
00
FE
FE
ENDCHAR

STARTCHAR pi
ENCODING 123
SWIDTH 360 0
DWIDTH 9 0
BBX 8 12 1 0
BITMAP
FF
FF
66
66
66
66
CC
CC
CC
CC
CC
CC
ENDCHAR

STARTCHAR notequal
ENCODING 124
SWIDTH 360 0
DWIDTH 9 0
BBX 7 13 1 0
BITMAP
0C
0C
0C
FE
FE
18
18
18
FE
FE
30
30
30
ENDCHAR

STARTCHAR sterling
ENCODING 125
SWIDTH 360 0
DWIDTH 9 0
BBX 7 15 1 0
BITMAP
3C
7E
66
66
70
30
FC
FC
30
30
70
60
FE
FE
CE
ENDCHAR

STARTCHAR periodcentered
ENCODING 126
SWIDTH 360 0
DWIDTH 9 0
BBX 4 4 2 4
BITMAP
60
F0
F0
60
ENDCHAR

STARTCHAR Error
ENCODING 159
SWIDTH 360 0
DWIDTH 9 0
BBX 9 25 0 -5
BITMAP
3E00
7F00
FF80
E380
E380
E000
E000
F000
7800
3C00
1C00
1C00
1C00
1C00
1C00
1C00
1C00
1C00
0000
0000
0000
1C00
1C00
1C00
1C00
ENDCHAR

STARTCHAR ldradicalbt
ENCODING 161
SWIDTH 360 0
DWIDTH 9 0
BBX 6 16 0 4
BITMAP
1C
1C
1C
1C
1C
1C
1C
1C
1C
9C
DC
DC
7C
3C
3C
1C
ENDCHAR

STARTCHAR ldradicaltp
ENCODING 162
SWIDTH 360 0
DWIDTH 9 0
BBX 6 13 3 -5
BITMAP
FC
FC
E0
E0
E0
E0
E0
E0
E0
E0
E0
E0
E0
ENDCHAR

STARTCHAR ldhorizontal
ENCODING 163
SWIDTH 360 0
DWIDTH 9 0
BBX 9 2 0 6
BITMAP
FF80
FF80
ENDCHAR

STARTCHAR ldintegraltp
ENCODING 164
SWIDTH 360 0
DWIDTH 9 0
BBX 5 23 3 -5
BITMAP
18
38
78
60
E0
E0
E0
E0
E0
E0
E0
E0
E0
E0
E0
E0
E0
E0
E0
E0
E0
E0
E0
ENDCHAR

STARTCHAR ldintegralbt
ENCODING 165
SWIDTH 360 0
DWIDTH 9 0
BBX 5 24 1 -4
BITMAP
38
38
38
38
38
38
38
38
38
38
38
38
38
38
38
38
38
38
38
38
38
F0
F0
C0
ENDCHAR

STARTCHAR ldvertical
ENCODING 166
SWIDTH 360 0
DWIDTH 9 0
BBX 3 25 3 -5
BITMAP
E0
E0
E0
E0
E0
E0
E0
E0
E0
E0
E0
E0
E0
E0
E0
E0
E0
E0
E0
E0
E0
E0
E0
E0
E0
ENDCHAR

STARTCHAR ldbracketlfttp
ENCODING 167
SWIDTH 360 0
DWIDTH 9 0
BBX 5 23 3 -5
BITMAP
F8
F8
F8
E0
E0
E0
E0
E0
E0
E0
E0
E0
E0
E0
E0
E0
E0
E0
E0
E0
E0
E0
E0
ENDCHAR

STARTCHAR ldbracketlftbt
ENCODING 168
SWIDTH 360 0
DWIDTH 9 0
BBX 5 24 3 -4
BITMAP
E0
E0
E0
E0
E0
E0
E0
E0
E0
E0
E0
E0
E0
E0
E0
E0
E0
E0
E0
E0
E0
F8
F8
F8
ENDCHAR

STARTCHAR ldbracketrttp
ENCODING 169
SWIDTH 360 0
DWIDTH 9 0
BBX 5 22 1 -5
BITMAP
F8
F8
F8
38
38
38
38
38
38
38
38
38
38
38
38
38
38
38
38
38
38
38
ENDCHAR

STARTCHAR ldbracketrtbt
ENCODING 170
SWIDTH 360 0
DWIDTH 9 0
BBX 5 24 1 -4
BITMAP
38
38
38
38
38
38
38
38
38
38
38
38
38
38
38
38
38
38
38
38
38
F8
F8
F8
ENDCHAR

STARTCHAR ldbracelfttp
ENCODING 171
SWIDTH 360 0
DWIDTH 9 0
BBX 5 23 3 -5
BITMAP
18
38
78
60
E0
E0
E0
E0
E0
E0
E0
E0
E0
E0
E0
E0
E0
E0
E0
E0
E0
E0
E0
ENDCHAR

STARTCHAR ldbracelftbt
ENCODING 172
SWIDTH 360 0
DWIDTH 9 0
BBX 5 25 3 -5
BITMAP
E0
E0
E0
E0
E0
E0
E0
E0
E0
E0
E0
E0
E0
E0
E0
E0
E0
E0
E0
E0
E0
E0
60
78
38
ENDCHAR

STARTCHAR ldbracerttp
ENCODING 173
SWIDTH 360 0
DWIDTH 9 0
BBX 5 23 1 -5
BITMAP
E0
F0
F0
38
38
38
38
38
38
38
38
38
38
38
38
38
38
38
38
38
38
38
38
ENDCHAR

STARTCHAR ldbracertbt
ENCODING 174
SWIDTH 360 0
DWIDTH 9 0
BBX 5 24 1 -4
BITMAP
38
38
38
38
38
38
38
38
38
38
38
38
38
38
38
38
38
38
38
38
38
F0
F0
E0
ENDCHAR

STARTCHAR ldbracelftmid
ENCODING 175
SWIDTH 360 0
DWIDTH 9 0
BBX 5 25 1 -5
BITMAP
38
38
38
38
38
38
38
38
38
38
38
38
70
E0
70
38
38
38
38
38
38
38
38
38
38
ENDCHAR

STARTCHAR ldbracertmid
ENCODING 176
SWIDTH 360 0
DWIDTH 9 0
BBX 5 25 3 -5
BITMAP
E0
E0
E0
E0
E0
E0
E0
E0
E0
E0
E0
E0
70
38
70
E0
E0
E0
E0
E0
E0
E0
E0
E0
E0
ENDCHAR

STARTCHAR ldsigmalfttp
ENCODING 177
SWIDTH 360 0
DWIDTH 9 0
BBX 6 13 3 -5
BITMAP
FC
FC
E0
60
70
30
30
38
18
1C
0C
0C
04
ENDCHAR

STARTCHAR ldsigmalftbt
ENCODING 178
SWIDTH 360 0
DWIDTH 9 0
BBX 6 14 3 6
BITMAP
0C
0C
0C
1C
18
18
38
30
30
70
60
E0
FC
FC
ENDCHAR

STARTCHAR ldbackslash
ENCODING 179
SWIDTH 360 0
DWIDTH 9 0
BBX 9 25 0 -5
BITMAP
8000
C000
C000
6000
6000
6000
3000
3000
3000
1800
1800
1800
0C00
0C00
0C00
0E00
0600
0600
0600
0300
0300
0300
0180
0180
0080
ENDCHAR

STARTCHAR ldslash
ENCODING 180
SWIDTH 360 0
DWIDTH 9 0
BBX 9 25 0 -5
BITMAP
0080
0180
0180
0300
0300
0300
0600
0600
0600
0C00
0C00
0C00
1800
1800
1800
3800
3000
3000
3000
6000
6000
6000
C000
C000
8000
ENDCHAR

STARTCHAR ldsigmarttp
ENCODING 181
SWIDTH 360 0
DWIDTH 9 0
BBX 8 5 0 3
BITMAP
FF
FF
03
03
03
ENDCHAR

STARTCHAR ldsigmartbt
ENCODING 182
SWIDTH 360 0
DWIDTH 9 0
BBX 8 5 0 6
BITMAP
03
03
03
FF
FF
ENDCHAR

STARTCHAR ldsigmamid
ENCODING 183
SWIDTH 360 0
DWIDTH 9 0
BBX 5 25 0 -5
BITMAP
80
C0
C0
C0
60
60
60
70
30
30
38
18
18
38
30
30
70
60
60
60
C0
C0
C0
80
80
ENDCHAR

STARTCHAR lessequal
ENCODING 188
SWIDTH 360 0
DWIDTH 9 0
BBX 7 13 1 0
BITMAP
06
1E
3C
70
E0
70
3C
1E
06
00
00
FE
FE
ENDCHAR

STARTCHAR notequal
ENCODING 189
SWIDTH 360 0
DWIDTH 9 0
BBX 7 13 1 0
BITMAP
0C
0C
0C
FE
FE
18
18
18
FE
FE
30
30
30
ENDCHAR

STARTCHAR greaterequal
ENCODING 190
SWIDTH 360 0
DWIDTH 9 0
BBX 7 13 1 0
BITMAP
C0
F0
78
1C
0E
1C
78
F0
C0
00
00
FE
FE
ENDCHAR

STARTCHAR integral
ENCODING 191
SWIDTH 360 0
DWIDTH 9 0
BBX 6 24 2 -5
BITMAP
18
3C
34
30
30
30
30
30
30
30
30
30
30
30
30
30
30
30
30
30
30
B0
E0
40
ENDCHAR

STARTCHAR therefore
ENCODING 192
SWIDTH 360 0
DWIDTH 9 0
BBX 9 10 0 1
BITMAP
0C00
1E00
0C00
0000
0000
0000
0000
6300
F780
6300
ENDCHAR

STARTCHAR proportional
ENCODING 193
SWIDTH 360 0
DWIDTH 9 0
BBX 8 11 1 1
BITMAP
73
FF
CE
CC
CC
CC
CC
CC
CE
FF
73
ENDCHAR

STARTCHAR infinity
ENCODING 194
SWIDTH 360 0
DWIDTH 9 0
BBX 9 11 0 1
BITMAP
7300
FF80
C980
C980
C980
C980
C980
C980
C980
FF80
7300
ENDCHAR

STARTCHAR divide
ENCODING 195
SWIDTH 360 0
DWIDTH 9 0
BBX 7 14 1 0
BITMAP
38
38
38
38
00
00
FE
FE
00
00
38
38
38
38
ENDCHAR

STARTCHAR Delta
ENCODING 196
SWIDTH 360 0
DWIDTH 9 0
BBX 7 15 1 0
BITMAP
38
38
7C
7C
6C
EE
C6
C6
C6
C6
C6
C6
FE
FE
FE
ENDCHAR

STARTCHAR gradient
ENCODING 197
SWIDTH 360 0
DWIDTH 9 0
BBX 7 15 1 0
BITMAP
FE
FE
FE
C6
C6
C6
C6
C6
C6
EE
6C
7C
7C
38
38
ENDCHAR

STARTCHAR Phi
ENCODING 198
SWIDTH 360 0
DWIDTH 9 0
BBX 8 15 0 0
BITMAP
3C
3C
18
3C
7E
DB
DB
DB
DB
DB
7E
3C
18
3C
3C
ENDCHAR

STARTCHAR Gamma
ENCODING 199
SWIDTH 360 0
DWIDTH 9 0
BBX 7 15 1 0
BITMAP
FE
FE
FE
66
66
60
60
60
60
60
60
60
F0
F0
F0
ENDCHAR

STARTCHAR similar
ENCODING 200
SWIDTH 360 0
DWIDTH 9 0
BBX 7 4 1 6
BITMAP
62
FE
FE
8C
ENDCHAR

STARTCHAR approxequal
ENCODING 201
SWIDTH 360 0
DWIDTH 9 0
BBX 7 9 1 2
BITMAP
62
FE
FE
8C
00
00
00
FE
FE
ENDCHAR

STARTCHAR Theta
ENCODING 202
SWIDTH 360 0
DWIDTH 9 0
BBX 7 15 1 0
BITMAP
7C
FE
FE
C6
C6
C6
FE
FE
C6
C6
C6
C6
FE
FE
7C
ENDCHAR

STARTCHAR multiply
ENCODING 203
SWIDTH 360 0
DWIDTH 9 0
BBX 7 9 1 3
BITMAP
C6
C6
EE
7C
38
7C
EE
C6
C6
ENDCHAR

STARTCHAR Lambda
ENCODING 204
SWIDTH 360 0
DWIDTH 9 0
BBX 7 15 1 0
BITMAP
38
38
7C
7C
6C
EE
C6
C6
C6
C6
C6
C6
C6
C6
C6
ENDCHAR

STARTCHAR arrowdblboth
ENCODING 205
SWIDTH 360 0
DWIDTH 9 0
BBX 8 13 0 1
BITMAP
24
24
66
7E
FF
FF
C3
FF
7E
7E
66
24
24
ENDCHAR

STARTCHAR arrowdblright
ENCODING 206
SWIDTH 360 0
DWIDTH 9 0
BBX 8 13 0 1
BITMAP
10
18
0C
FE
FE
FF
07
FE
FE
FC
0C
18
10
ENDCHAR

STARTCHAR equivalence
ENCODING 207
SWIDTH 360 0
DWIDTH 9 0
BBX 7 10 1 2
BITMAP
FE
FE
00
00
FE
FE
00
00
FE
FE
ENDCHAR

STARTCHAR Pi
ENCODING 208
SWIDTH 360 0
DWIDTH 9 0
BBX 7 15 1 0
BITMAP
FE
FE
FE
C6
C6
C6
C6
C6
C6
C6
C6
C6
C6
C6
C6
ENDCHAR

STARTCHAR Psi
ENCODING 209
SWIDTH 360 0
DWIDTH 9 0
BBX 8 15 0 0
BITMAP
3C
3C
18
DB
DB
DB
DB
DB
7E
3C
18
18
18
3C
3C
ENDCHAR

STARTCHAR Sigma
ENCODING 211
SWIDTH 360 0
DWIDTH 9 0
BBX 7 15 1 0
BITMAP
FE
FE
FE
E2
70
38
1C
1C
38
30
70
E2
FE
FE
FE
ENDCHAR

STARTCHAR radical
ENCODING 214
SWIDTH 360 0
DWIDTH 9 0
BBX 8 20 1 -3
BITMAP
03
03
03
03
06
06
06
06
C6
C6
CC
CC
CC
6C
6C
68
78
38
38
38
ENDCHAR

STARTCHAR Omega
ENCODING 215
SWIDTH 360 0
DWIDTH 9 0
BBX 7 15 1 0
BITMAP
38
7C
7C
EE
C6
C6
C6
C6
C6
6C
6C
6C
6C
EE
EE
ENDCHAR

STARTCHAR Xi
ENCODING 216
SWIDTH 360 0
DWIDTH 9 0
BBX 7 15 1 0
BITMAP
FE
FE
FE
C6
00
44
7C
7C
7C
44
00
C6
FE
FE
FE
ENDCHAR

STARTCHAR Upsilon1
ENCODING 217
SWIDTH 360 0
DWIDTH 9 0
BBX 7 15 1 0
BITMAP
C6
C6
C6
C6
C6
C6
7C
7C
7C
30
30
30
78
78
78
ENDCHAR

STARTCHAR propersubset
ENCODING 218
SWIDTH 360 0
DWIDTH 9 0
BBX 7 14 1 0
BITMAP
3E
7E
7E
C0
C0
C0
C0
C0
C0
C0
C0
7E
7E
3E
ENDCHAR

STARTCHAR propersuperset
ENCODING 219
SWIDTH 360 0
DWIDTH 9 0
BBX 7 14 1 0
BITMAP
F8
FC
FC
06
06
06
06
06
06
06
06
FC
FC
F8
ENDCHAR

STARTCHAR intersection
ENCODING 220
SWIDTH 360 0
DWIDTH 9 0
BBX 7 14 1 0
BITMAP
7C
FE
FE
C6
C6
C6
C6
C6
C6
C6
C6
C6
C6
C6
ENDCHAR

STARTCHAR union
ENCODING 221
SWIDTH 360 0
DWIDTH 9 0
BBX 7 14 1 0
BITMAP
C6
C6
C6
C6
C6
C6
C6
C6
C6
C6
C6
FE
FE
7C
ENDCHAR

STARTCHAR logicaland
ENCODING 222
SWIDTH 360 0
DWIDTH 9 0
BBX 8 13 0 0
BITMAP
18
18
3C
3C
24
66
66
66
66
C3
C3
C3
C3
ENDCHAR

STARTCHAR logicalor
ENCODING 223
SWIDTH 360 0
DWIDTH 9 0
BBX 8 13 0 0
BITMAP
C3
C3
C3
66
66
66
66
3C
3C
3C
18
18
18
ENDCHAR

STARTCHAR logicalnot
ENCODING 224
SWIDTH 360 0
DWIDTH 9 0
BBX 7 7 1 4
BITMAP
FE
FE
FE
06
06
06
06
ENDCHAR

STARTCHAR alpha
ENCODING 225
SWIDTH 360 0
DWIDTH 9 0
BBX 8 12 1 0
BITMAP
3D
7F
67
67
66
C6
CC
CC
CC
FE
FE
76
ENDCHAR

STARTCHAR beta
ENCODING 226
SWIDTH 360 0
DWIDTH 9 0
BBX 8 21 0 -4
BITMAP
1E
1E
3F
33
33
33
33
3E
3E
33
73
73
63
63
7F
7E
FC
C0
C0
C0
C0
ENDCHAR

STARTCHAR chi
ENCODING 227
SWIDTH 360 0
DWIDTH 9 0
BBX 8 16 0 -4
BITMAP
33
33
33
33
3B
1A
1E
3E
3C
3C
7E
66
E6
C6
C6
C6
ENDCHAR

STARTCHAR delta
ENCODING 228
SWIDTH 360 0
DWIDTH 9 0
BBX 8 17 0 0
BITMAP
1E
1E
3E
30
38
1C
3C
3E
67
E7
C3
C3
C3
C7
FE
7C
38
ENDCHAR

STARTCHAR epsilon
ENCODING 229
SWIDTH 360 0
DWIDTH 9 0
BBX 7 12 1 0
BITMAP
3E
7E
7E
60
E0
FC
FC
C0
C0
FE
FE
7E
ENDCHAR

STARTCHAR phi
ENCODING 230
SWIDTH 360 0
DWIDTH 9 0
BBX 9 20 0 -4
BITMAP
0400
0400
0C00
0C00
1F00
7F80
6580
6580
CD80
C980
DB80
D300
D300
FE00
FE00
7800
3000
3000
2000
2000
ENDCHAR

STARTCHAR gamma
ENCODING 231
SWIDTH 360 0
DWIDTH 9 0
BBX 7 16 1 -4
BITMAP
C6
C6
C6
C6
E6
66
66
6C
7C
38
38
38
70
70
70
70
ENDCHAR

STARTCHAR eta
ENCODING 232
SWIDTH 360 0
DWIDTH 9 0
BBX 7 16 1 -4
BITMAP
CE
FE
76
66
66
66
C6
CC
CC
CC
CC
CC
0C
0C
0C
0C
ENDCHAR

STARTCHAR iota
ENCODING 233
SWIDTH 360 0
DWIDTH 9 0
BBX 6 12 1 0
BITMAP
F8
F8
38
38
30
30
70
70
70
7C
7C
3C
ENDCHAR

STARTCHAR theta
ENCODING 234
SWIDTH 360 0
DWIDTH 9 0
BBX 7 17 1 0
BITMAP
3C
3C
7E
66
C6
C6
C6
FE
FE
C6
C6
C6
C6
CC
FC
7C
78
ENDCHAR

STARTCHAR kappa
ENCODING 235
SWIDTH 360 0
DWIDTH 9 0
BBX 7 12 1 0
BITMAP
E6
E6
6C
6C
78
78
F8
F8
CC
CC
C6
C6
ENDCHAR

STARTCHAR lambda
ENCODING 236
SWIDTH 360 0
DWIDTH 9 0
BBX 7 18 1 0
BITMAP
38
38
18
18
1C
1C
1C
3C
3E
36
66
66
66
E6
C6
C6
C6
C6
ENDCHAR

STARTCHAR nu
ENCODING 238
SWIDTH 360 0
DWIDTH 9 0
BBX 7 12 1 0
BITMAP
C6
C6
C6
C6
E6
E6
E6
6C
7C
78
78
70
ENDCHAR

STARTCHAR partialdiff
ENCODING 239
SWIDTH 360 0
DWIDTH 9 0
BBX 7 17 1 0
BITMAP
E0
F8
38
1C
1C
0E
3E
7E
66
C6
C6
C6
C6
CE
FC
7C
38
ENDCHAR

STARTCHAR pi
ENCODING 240
SWIDTH 360 0
DWIDTH 9 0
BBX 8 12 1 0
BITMAP
FF
FF
66
66
66
EE
CC
CC
CC
CC
CC
CC
ENDCHAR

STARTCHAR psi
ENCODING 241
SWIDTH 360 0
DWIDTH 9 0
BBX 9 19 0 -4
BITMAP
0C00
0C00
0C00
6D80
6D80
6D80
6D80
C980
D980
D980
D980
DB00
FF00
FF00
7E00
3000
3000
3000
3000
ENDCHAR

STARTCHAR rho
ENCODING 242
SWIDTH 360 0
DWIDTH 9 0
BBX 7 16 1 -4
BITMAP
3C
7E
C6
C6
C6
C6
C6
C6
C6
FC
FC
F8
C0
C0
C0
C0
ENDCHAR

STARTCHAR sigma
ENCODING 243
SWIDTH 360 0
DWIDTH 9 0
BBX 8 12 1 0
BITMAP
3F
7F
C6
C6
C6
C6
C6
C6
C6
FC
FC
78
ENDCHAR

STARTCHAR tau
ENCODING 244
SWIDTH 360 0
DWIDTH 9 0
BBX 7 12 1 0
BITMAP
FE
FE
38
38
38
30
30
70
76
76
7E
3C
ENDCHAR

STARTCHAR florin
ENCODING 246
SWIDTH 360 0
DWIDTH 9 0
BBX 8 20 0 -4
BITMAP
07
0F
0F
1C
1C
7F
7F
7F
1C
1C
1C
1C
18
18
38
38
38
F0
F0
E0
ENDCHAR

STARTCHAR omega
ENCODING 247
SWIDTH 360 0
DWIDTH 9 0
BBX 9 12 0 0
BITMAP
4980
4980
4980
C980
C980
D980
D980
DB00
DB00
FF00
FF00
6600
ENDCHAR

STARTCHAR xi
ENCODING 248
SWIDTH 360 0
DWIDTH 9 0
BBX 7 21 1 -4
BITMAP
FE
FE
FE
18
38
30
30
70
7C
7C
E0
E0
C0
C0
FC
7E
3E
06
06
06
1C
ENDCHAR

STARTCHAR upsilon
ENCODING 249
SWIDTH 360 0
DWIDTH 9 0
BBX 7 12 1 0
BITMAP
C6
C6
C6
C6
C6
C6
C6
C6
CC
FC
78
70
ENDCHAR

STARTCHAR zeta
ENCODING 250
SWIDTH 360 0
DWIDTH 9 0
BBX 7 21 1 -4
BITMAP
FE
FE
FE
0C
1C
18
38
70
70
60
E0
E0
E0
E0
FC
7E
3E
06
06
06
1C
ENDCHAR

STARTCHAR arrowleft
ENCODING 251
SWIDTH 360 0
DWIDTH 9 0
BBX 8 12 1 0
BITMAP
18
18
38
60
60
FF
FF
60
60
38
18
18
ENDCHAR

STARTCHAR arrowup
ENCODING 252
SWIDTH 360 0
DWIDTH 9 0
BBX 6 17 2 -1
BITMAP
30
30
78
78
FC
B4
B4
30
30
30
30
30
30
30
30
30
30
ENDCHAR

STARTCHAR arrowright
ENCODING 253
SWIDTH 360 0
DWIDTH 9 0
BBX 8 12 0 0
BITMAP
18
18
1C
06
06
FF
FF
06
06
1C
18
18
ENDCHAR

STARTCHAR arrowdown
ENCODING 254
SWIDTH 360 0
DWIDTH 9 0
BBX 6 17 2 -1
BITMAP
30
30
30
30
30
30
30
30
30
30
B4
B4
FC
78
78
30
30
ENDCHAR
ENDFONT
